<svg width="13" height="16" viewBox="0 0 13 16" fill="none" xmlns="http://www.w3.org/2000/svg">
<path d="M11.6667 6.33333C11.6667 9.662 7.974 13.1287 6.734 14.1993C6.61848 14.2862 6.47787 14.3332 6.33333 14.3332C6.1888 14.3332 6.04818 14.2862 5.93267 14.1993C4.69267 13.1287 1 9.662 1 6.33333C1 4.91885 1.5619 3.56229 2.5621 2.5621C3.56229 1.5619 4.91885 1 6.33333 1C7.74782 1 9.10438 1.5619 10.1046 2.5621C11.1048 3.56229 11.6667 4.91885 11.6667 6.33333Z" stroke="#4B5563" stroke-width="2" stroke-linecap="round" stroke-linejoin="round"/>
<path d="M6.33334 8.33337C7.43791 8.33337 8.33334 7.43794 8.33334 6.33337C8.33334 5.2288 7.43791 4.33337 6.33334 4.33337C5.22877 4.33337 4.33334 5.2288 4.33334 6.33337C4.33334 7.43794 5.22877 8.33337 6.33334 8.33337Z" stroke="#4B5563" stroke-width="2" stroke-linecap="round" stroke-linejoin="round"/>
</svg>
